<mxfile host="app.diagrams.net" modified="2020-12-09T12:05:47.353Z" agent="5.0 (Macintosh; Intel Mac OS X 10_15_7) AppleWebKit/537.36 (KHTML, like Gecko) Chrome/87.0.4280.88 Safari/537.36" etag="rB5XGcZf837TmWAIRX6I" version="13.10.6" type="github">
  <diagram id="9HsLgIlctEGnbmhHxLgc" name="Page-1">
    <mxGraphModel dx="1298" dy="758" grid="0" gridSize="10" guides="1" tooltips="1" connect="1" arrows="1" fold="1" page="1" pageScale="1" pageWidth="827" pageHeight="1169" math="0" shadow="0">
      <root>
        <mxCell id="0" />
        <mxCell id="1" parent="0" />
        <mxCell id="NBqlIHR0_PowA1mTgG5R-1" value="西小口地铁站" style="rounded=1;whiteSpace=wrap;html=1;" vertex="1" parent="1">
          <mxGeometry x="30" y="320" width="120" height="60" as="geometry" />
        </mxCell>
        <mxCell id="NBqlIHR0_PowA1mTgG5R-3" style="edgeStyle=orthogonalEdgeStyle;rounded=0;orthogonalLoop=1;jettySize=auto;html=1;entryX=0.5;entryY=0;entryDx=0;entryDy=0;" edge="1" parent="1" source="NBqlIHR0_PowA1mTgG5R-2" target="NBqlIHR0_PowA1mTgG5R-1">
          <mxGeometry relative="1" as="geometry" />
        </mxCell>
        <mxCell id="NBqlIHR0_PowA1mTgG5R-6" value="憨宝还没到 等等" style="edgeLabel;html=1;align=center;verticalAlign=middle;resizable=0;points=[];" vertex="1" connectable="0" parent="NBqlIHR0_PowA1mTgG5R-3">
          <mxGeometry x="-0.1429" y="4" relative="1" as="geometry">
            <mxPoint as="offset" />
          </mxGeometry>
        </mxCell>
        <mxCell id="NBqlIHR0_PowA1mTgG5R-2" value="等人的憨憨" style="rounded=0;whiteSpace=wrap;html=1;fillColor=#d5e8d4;strokeColor=#82b366;" vertex="1" parent="1">
          <mxGeometry x="30" y="190" width="120" height="60" as="geometry" />
        </mxCell>
        <mxCell id="NBqlIHR0_PowA1mTgG5R-8" value="西小口地铁站" style="rounded=1;whiteSpace=wrap;html=1;" vertex="1" parent="1">
          <mxGeometry x="239" y="300" width="120" height="60" as="geometry" />
        </mxCell>
        <mxCell id="NBqlIHR0_PowA1mTgG5R-9" style="edgeStyle=orthogonalEdgeStyle;rounded=0;orthogonalLoop=1;jettySize=auto;html=1;entryX=0.5;entryY=0;entryDx=0;entryDy=0;" edge="1" parent="1" source="NBqlIHR0_PowA1mTgG5R-11" target="NBqlIHR0_PowA1mTgG5R-8">
          <mxGeometry relative="1" as="geometry" />
        </mxCell>
        <mxCell id="NBqlIHR0_PowA1mTgG5R-15" value="等人的憨憨" style="edgeLabel;html=1;align=center;verticalAlign=middle;resizable=0;points=[];" vertex="1" connectable="0" parent="NBqlIHR0_PowA1mTgG5R-9">
          <mxGeometry x="-0.16" relative="1" as="geometry">
            <mxPoint as="offset" />
          </mxGeometry>
        </mxCell>
        <mxCell id="NBqlIHR0_PowA1mTgG5R-11" value="等人的憨憨" style="rounded=0;whiteSpace=wrap;html=1;fillColor=#d5e8d4;strokeColor=#82b366;" vertex="1" parent="1">
          <mxGeometry x="239" y="190" width="120" height="60" as="geometry" />
        </mxCell>
        <mxCell id="NBqlIHR0_PowA1mTgG5R-13" value="" style="edgeStyle=orthogonalEdgeStyle;rounded=0;orthogonalLoop=1;jettySize=auto;html=1;" edge="1" parent="1" source="NBqlIHR0_PowA1mTgG5R-12" target="NBqlIHR0_PowA1mTgG5R-8">
          <mxGeometry relative="1" as="geometry" />
        </mxCell>
        <mxCell id="NBqlIHR0_PowA1mTgG5R-14" value="到了，发现憨憨" style="edgeLabel;html=1;align=center;verticalAlign=middle;resizable=0;points=[];" vertex="1" connectable="0" parent="NBqlIHR0_PowA1mTgG5R-13">
          <mxGeometry x="-0.1818" y="2" relative="1" as="geometry">
            <mxPoint as="offset" />
          </mxGeometry>
        </mxCell>
        <mxCell id="NBqlIHR0_PowA1mTgG5R-12" value="憨宝" style="rounded=0;whiteSpace=wrap;html=1;fillColor=#ffe6cc;strokeColor=#d79b00;" vertex="1" parent="1">
          <mxGeometry x="469" y="300" width="120" height="60" as="geometry" />
        </mxCell>
        <mxCell id="NBqlIHR0_PowA1mTgG5R-16" value="西小口地铁站" style="rounded=1;whiteSpace=wrap;html=1;" vertex="1" parent="1">
          <mxGeometry x="660" y="280" width="180" height="100" as="geometry" />
        </mxCell>
        <mxCell id="NBqlIHR0_PowA1mTgG5R-17" style="edgeStyle=orthogonalEdgeStyle;rounded=0;orthogonalLoop=1;jettySize=auto;html=1;entryX=0.5;entryY=0;entryDx=0;entryDy=0;" edge="1" parent="1" source="NBqlIHR0_PowA1mTgG5R-19" target="NBqlIHR0_PowA1mTgG5R-16">
          <mxGeometry relative="1" as="geometry" />
        </mxCell>
        <mxCell id="NBqlIHR0_PowA1mTgG5R-19" value="等人的憨憨" style="rounded=0;whiteSpace=wrap;html=1;fillColor=#d5e8d4;strokeColor=#82b366;" vertex="1" parent="1">
          <mxGeometry x="690" y="190" width="120" height="60" as="geometry" />
        </mxCell>
        <mxCell id="NBqlIHR0_PowA1mTgG5R-29" value="" style="edgeStyle=orthogonalEdgeStyle;rounded=0;orthogonalLoop=1;jettySize=auto;html=1;" edge="1" parent="1" source="NBqlIHR0_PowA1mTgG5R-22" target="NBqlIHR0_PowA1mTgG5R-16">
          <mxGeometry relative="1" as="geometry" />
        </mxCell>
        <mxCell id="NBqlIHR0_PowA1mTgG5R-36" value="给憨憨打招呼" style="edgeLabel;html=1;align=center;verticalAlign=middle;resizable=0;points=[];" vertex="1" connectable="0" parent="NBqlIHR0_PowA1mTgG5R-29">
          <mxGeometry x="0.15" y="1" relative="1" as="geometry">
            <mxPoint as="offset" />
          </mxGeometry>
        </mxCell>
        <mxCell id="NBqlIHR0_PowA1mTgG5R-22" value="憨宝" style="rounded=0;whiteSpace=wrap;html=1;fillColor=#ffe6cc;strokeColor=#d79b00;" vertex="1" parent="1">
          <mxGeometry x="950" y="300" width="120" height="60" as="geometry" />
        </mxCell>
        <mxCell id="NBqlIHR0_PowA1mTgG5R-32" value="嗨，憨憨" style="text;html=1;strokeColor=none;fillColor=none;align=center;verticalAlign=middle;whiteSpace=wrap;rounded=0;" vertex="1" parent="1">
          <mxGeometry x="770" y="280" width="70" height="30" as="geometry" />
        </mxCell>
        <mxCell id="NBqlIHR0_PowA1mTgG5R-35" value="嗨，憨宝" style="text;html=1;strokeColor=none;fillColor=none;align=center;verticalAlign=middle;whiteSpace=wrap;rounded=0;" vertex="1" parent="1">
          <mxGeometry x="770" y="300" width="70" height="30" as="geometry" />
        </mxCell>
      </root>
    </mxGraphModel>
  </diagram>
</mxfile>
